<?xml version="1.0" encoding="UTF-8"?>
<svg width="58px" height="37px" viewBox="0 0 58 37" version="1.1" xmlns="http://www.w3.org/2000/svg" xmlns:xlink="http://www.w3.org/1999/xlink">
    <title>Combined Shape</title>
    <g id="Navbar" stroke="none" stroke-width="1" fill="none" fill-rule="evenodd">
        <g id="Desktop-HD" transform="translate(-44.000000, -12.000000)" fill="#DDDBF5">
            <g id="Nav-flex" transform="translate(44.000000, 12.000000)">
                <path d="M32.1388403,36.415493 L32.1380372,7.65449296 L19.3690372,29.965493 L17.1690372,29.965493 L4.2690372,7.51549296 L4.2690372,36.415493 L0.769037199,36.415493 L0.769037199,0.915492958 L4.3690372,0.915492958 L18.2190372,25.215493 L32.1380372,0.969492958 L32.1388403,0.915492958 L46.8388403,0.915492958 L47.2195694,0.92209018 C49.2992569,0.994659624 49.2992569,0.994659624 51.0638403,1.86549296 C52.9888403,2.81549296 52.9888403,2.81549296 54.3888403,4.44049296 C55.7888403,6.06549296 55.7888403,6.06549296 56.5888403,8.04049296 C57.3888403,10.015493 57.3888403,10.015493 57.3888403,12.065493 C57.3888403,14.965493 57.3888403,14.965493 56.1138403,17.540493 C54.8388403,20.115493 54.8388403,20.115493 52.5388403,21.715493 C50.2388403,23.315493 50.2388403,23.315493 47.1388403,23.315493 L47.1388403,23.315493 L35.7190372,23.315493 L35.7190372,36.415493 L32.1388403,36.415493 Z M46.6888403,4.01549296 L35.7190372,4.01549296 L35.7190372,20.215493 L46.9888403,20.215493 C48.9273018,20.215493 48.9273018,20.215493 50.3971243,19.2356113 L50.6388403,19.065493 C52.1888403,17.915493 52.1888403,17.915493 53.0388403,16.065493 C53.8888403,14.215493 53.8888403,14.215493 53.8888403,12.065493 C53.8888403,9.86549296 53.8888403,9.86549296 52.8888403,8.01549296 C51.8888403,6.16549296 51.8888403,6.16549296 50.2638403,5.09049296 C48.6388403,4.01549296 48.6388403,4.01549296 46.6888403,4.01549296 L46.6888403,4.01549296 Z" id="Combined-Shape"></path>
            </g>
        </g>
    </g>
</svg>